<?xml version="1.0" encoding="UTF-8"?>
<svg width="200px" height="200px" viewBox="0 0 200 200" version="1.1" xmlns="http://www.w3.org/2000/svg" xmlns:xlink="http://www.w3.org/1999/xlink">
    <!-- Generator: Sketch 48.2 (47327) - http://www.bohemiancoding.com/sketch -->
    <title>Artboard</title>
    <desc>Created with Sketch.</desc>
    <defs></defs>
    <g id="Page-1" stroke="none" stroke-width="1" fill="none" fill-rule="evenodd">
        <g id="Artboard" fill="#212121">
            <g id="Bata" transform="translate(42.000000, 87.000000)">
                <path d="M86.9111062,18.7117643 C88.1586425,12.1525697 95.8837459,8.82712405 101.583928,9.14325299 L101.583928,9.14389423 C103.785878,9.26829385 105.685083,9.9364609 106.788303,11.1734036 L106.796,11.16635 C106.797924,11.1689149 106.80049,11.1708386 106.803055,11.1734036 C107.255888,10.6944009 107.709363,10.2153982 108.166686,9.73896047 C108.433511,9.46130564 109.196144,9.55043733 109.872828,9.67355448 C110.639309,9.81270252 111.459027,10.1294727 111.983056,10.1301139 C112.517348,10.1307552 113.779637,9.74280788 114.979709,9.5626208 C116.180423,9.38307495 117.318278,9.41064806 117.122649,9.89542185 L116.048293,12.5565478 L116.068818,12.5565478 L112.558398,21.2401546 C111.858624,22.9702071 114.596789,22.511724 118.400973,18.4886145 C119.052001,18.9156771 119.348331,18.9964727 120,20.6123854 C116.749992,23.4043233 113.648149,25.410107 109.348799,26.890719 C105.48304,28.2219232 102.635835,26.293729 101.739149,23.0792171 C96.2467822,28.221282 88.5941577,28.1661358 86.3973394,22.3655224 C82.8259864,24.1302016 78.5580656,26.004532 76.7877828,26.5162377 C75.3997785,26.9170096 74.1355657,27.1985119 72.9502459,27.2062067 C71.0491162,27.2177489 68.9748066,25.4485811 69.629683,22.8451663 C66.4803756,24.2385703 63.9788891,25.1478418 60.3696931,26.3911968 C56.5039343,27.722401 54.2808184,26.293729 53.3841317,23.0792171 C47.889841,28.2232057 40.2340095,28.1661358 38.0403983,22.3603925 C35.8833472,23.397911 32.89824,24.9234095 30.1510947,25.9994021 C25.7318019,27.9853074 20.5543662,27.5877416 16.6860419,23.5383415 L17.9508961,21.5485887 C19.77185,23.4844777 21.9930417,23.376109 23.7338197,21.8038003 C25.5874854,20.1301765 26.7638254,16.9015574 25.9203755,14.2564623 C25.5502838,13.0939029 24.2392483,12.2019448 21.7794532,12.3641773 L22.5414445,10.3378741 C25.0557591,10.2481012 27.021671,9.91337644 28.1069313,8.33273173 C29.6309138,6.11341678 29.6572115,2.69370957 26.3873196,2.78604744 C25.8094121,2.80207832 25.1295209,2.92519547 24.3380249,3.17976584 C23.7716627,4.85531336 22.7736338,6.83224141 21.9705925,8.90984339 C20.1380932,13.6504951 18.0855915,18.9124709 15.7014824,22.3033225 C12.8606917,26.3443866 9.82363056,27.1433657 7.37602223,26.9785682 C4.8148849,26.806076 2.80728163,26.0314639 0.00112690037,23.5011499 C-0.0123426423,22.4277222 0.0954136993,21.960903 0.298739653,20.627775 C1.28073346,22.0109193 4.66479571,23.4819128 5.76160133,21.873695 C8.21562373,18.2738007 10.9159463,11.3285825 12.9306051,6.84634858 C11.1096512,7.45103336 9.41954428,8.55844651 7.03222819,10.2141157 C7.06045009,9.93966708 6.23560095,9.33818848 6.26767129,8.5308734 C10.09238,4.12174031 16.8649944,1.42598763 21.4260381,0.462211156 C28.3968471,-1.01070605 35.8769332,1.13166068 36.9993951,5.53630512 C37.7479168,8.47316223 34.2823959,11.2272673 31.0259736,11.6248331 C32.9001642,12.7277576 34.8891667,14.6431271 35.3868984,16.9855592 C35.6389713,18.1686381 35.5690579,19.4376425 35.1951178,20.6534244 C36.2899992,20.1449249 37.6138628,19.4767579 38.4868174,19.1227961 C39.8613522,9.69920389 54.4283419,6.66744397 58.4480383,11.1734036 L59.8257801,9.73896047 C60.0926053,9.46130564 60.8558794,9.55043733 61.5325636,9.67355448 C62.2990447,9.81270252 63.1181212,10.1294727 63.6421505,10.1301139 C64.1764424,10.1307552 65.438731,9.74280788 66.6394445,9.5626208 C67.8395166,9.38307495 68.9773723,9.41064806 68.7823846,9.89542185 L64.2033815,21.2401546 C63.1675095,23.8025304 70.7701042,19.2638678 71.2178062,19.0169923 L74.4838496,12.0769039 L71.1203124,12.1237141 L71.7245176,9.27150003 L75.4408285,9.27342373 C76.0520892,8.46226123 76.2329659,7.488225 77.0443455,6.87776911 C78.1449996,6.04865202 80.6554658,6.49431047 81.8093566,5.74085914 C82.8061028,5.09000543 83.5732253,4.10827438 84.4942854,2.5975243 C85.2902713,1.29196948 88.186223,1.62669424 87.6326889,2.87004925 L85.0414054,9.34908948 L88.3164285,9.31831019 C89.87184,9.39974706 88.5357897,11.9839248 86.7667897,12.0038031 L84.0613359,12.052537 L80.9197254,20.1840403 C79.8896261,22.8502961 83.902267,20.4815734 86.9111062,18.7117643 Z M56.8291276,13.1477667 C56.4699397,11.913389 55.3962248,11.5818704 54.4674677,11.6806206 C52.2674424,11.9153127 50.1431031,14.356495 49.0527116,16.0544857 C47.3055195,18.7752466 47.7198682,22.7855314 50.4971597,22.0391336 C53.4354442,21.2497731 57.3505913,14.9406602 56.8291276,13.1477667 Z M105.184144,13.1477667 C104.824957,11.913389 103.751242,11.5818704 102.822485,11.6806206 C100.622459,11.9153127 98.49812,14.356495 97.4077285,16.0544857 C95.6605363,18.7752466 96.0742437,22.7855314 98.8515351,22.0391336 C101.790461,21.2497731 105.705608,14.9406602 105.184144,13.1477667 Z" id="Fill-2"></path>
            </g>
        </g>
    </g>
</svg>