<?xml version="1.0" encoding="UTF-8"?>
<svg width="200px" height="200px" viewBox="0 0 200 200" version="1.1" xmlns="http://www.w3.org/2000/svg" xmlns:xlink="http://www.w3.org/1999/xlink">
    <!-- Generator: Sketch 48.2 (47327) - http://www.bohemiancoding.com/sketch -->
    <title>Artboard</title>
    <desc>Created with Sketch.</desc>
    <defs>
        <polygon id="path-1" points="0.0850723198 25.5474453 25.4658241 25.5474453 25.4658241 0.181697655 0.0850723198 0.181697655 0.0850723198 25.5474453"></polygon>
    </defs>
    <g id="Page-1" stroke="none" stroke-width="1" fill="none" fill-rule="evenodd">
        <g id="Artboard">
            <g id="Biopak" transform="translate(37.000000, 84.000000)">
                <path d="M31.6182177,25.7502782 C31.2747656,25.7502782 31.1695346,25.6448621 31.1695346,25.2965864 L31.1695346,11.3243812 C31.1695346,9.20013754 30.1887092,8.21167883 28.0840894,8.21167883 L23.7226277,8.21167883 L23.7226277,12.5712557 L25.8635341,12.5712557 C26.2078934,12.5712557 26.3122172,12.6774039 26.3122172,13.0242154 L26.3122172,26.9971527 C26.3122172,29.1208473 27.2935869,30.1094891 29.3994768,30.1094891 L33.7591241,30.1094891 L33.7591241,25.7502782 L31.6182177,25.7502782 Z" id="Fill-1" fill="#212121"></path>
                <path d="M25.5474453,3.64999503 C25.5474453,5.16107642 26.7731899,6.38686131 28.2845815,6.38686131 C29.7959732,6.38686131 31.0218978,5.16107642 31.0218978,3.64999503 C31.0218978,2.13819366 29.7959732,0.912408759 28.2845815,0.912408759 C26.7731899,0.912408759 25.5474453,2.13819366 25.5474453,3.64999503" id="Fill-3" fill="#212121"></path>
                <path d="M100.505767,25.7304104 L100.505767,16.8490054 C100.505767,11.0368541 97.5527707,8.21167883 91.4760047,8.21167883 C90.1955669,8.21167883 83.8067537,8.42325017 83.8067537,12.5937033 L83.8067537,14.1788355 L88.4706038,14.1788355 L88.4706038,13.4607418 C88.4706038,12.6207007 90.2891994,12.3079351 91.4351436,12.3079351 C94.4282678,12.3079351 95.538115,13.4366829 95.5929019,16.5977644 L95.1456282,16.5977644 C86.743442,16.5977644 82.1167883,19.2986049 82.1167883,24.2025788 C82.1167883,28.6797369 85.9130263,31.0218978 89.6634559,31.0218978 C92.929232,31.0218978 94.8616158,29.3199606 95.8562089,28.027392 C95.9538725,29.2404377 96.598489,30.5262111 98.8949583,30.5262111 L103.10219,30.5262111 L103.10219,26.1831216 L100.956155,26.1831216 C100.611126,26.1831216 100.505767,26.0769687 100.505767,25.7304104 M90.5281362,26.8845027 C88.1391339,26.8845027 87.0695981,25.4338065 87.0695981,23.9957825 C87.0695981,20.8499444 91.3409614,20.4459019 95.06244,20.4459019 L95.6365115,20.4459019 L95.6365115,20.6912659 C95.6365115,23.6207576 93.5383012,26.8845027 90.5281362,26.8845027" id="Fill-5" fill="#212121"></path>
                <path d="M121.683946,25.1729527 L118.499174,19.5121313 C118.112128,18.8036554 117.71526,18.3670622 117.401316,18.103268 C117.711671,17.8438857 118.13404,17.4275137 118.632534,16.7716128 L125,8.2699024 L119.115539,8.2699024 L114.013104,15.2316797 C113.513477,15.8662564 112.622081,15.9614797 112.133409,15.9614797 L109.92957,15.9614797 L109.92957,2.8565144 C109.92957,0.827413046 109.005117,0 106.740642,0 L102.189781,0 L102.189781,4.34736528 L104.402498,4.34736528 C104.758377,4.34736528 104.866614,4.45361828 104.866614,4.79903243 L104.866614,30.1094891 L109.92957,30.1094891 L109.92957,20.2678511 L111.073707,20.2678511 C111.997782,20.2678511 113.290203,20.4656508 113.547289,20.8963615 L117.461007,27.9329571 C118.474618,29.6819035 119.256077,30.1094891 121.439327,30.1094891 L124.884585,30.1094891 L124.884585,25.7623076 L123.097259,25.7623076 C122.081193,25.7623076 121.905142,25.6047664 121.683946,25.1729527" id="Fill-7" fill="#212121"></path>
                <path d="M2.65056774,6.38884597 L0,6.38884597 L0,1.82481752 L13.6077342,1.82481752 C18.8287859,1.82481752 22.580273,4.53846796 22.580273,9.35016268 C22.580273,12.5988622 20.8273493,14.6955951 19.073125,15.6006448 L19.073125,15.6825133 C22.2134857,16.6285909 23.7226277,19.589533 23.7226277,22.5508497 C23.7226277,28.3899285 19.1141888,31.0218978 13.7303683,31.0218978 L5.42432696,31.0218978 C3.50751961,31.0218978 2.65056774,30.199466 2.65056774,28.2254422 L2.65056774,6.38884597 Z M13.6486122,13.7500794 C15.8920721,13.7500794 17.1557602,12.1050284 17.1557602,10.0077335 C17.1557602,7.91043858 15.9323927,6.38884597 13.5668562,6.38884597 L7.99406771,6.38884597 L7.99406771,13.7500794 L13.6486122,13.7500794 Z M8.89171179,26.4563706 L14.137662,26.4563706 C16.7486523,26.4563706 18.2163589,24.6891725 18.2163589,22.2211276 C18.2163589,19.7950473 16.7074027,18.0267251 14.137662,18.0267251 L7.99406771,18.0267251 L7.99406771,25.5524449 C7.99406771,26.1279599 8.3201628,26.4563706 8.89171179,26.4563706 Z" id="Fill-9" fill="#212121"></path>
                <path d="M62.8529333,6.38884597 L60.2189781,6.38884597 L60.2189781,1.82481752 L72.9578539,1.82481752 C78.347428,1.82481752 82.1167883,5.64921932 82.1167883,11.3239991 C82.1167883,16.9989663 78.347428,20.9468265 72.9578539,20.9468265 L68.161829,20.9468265 L68.161829,31.0218978 L62.8529333,31.0218978 L62.8529333,6.38884597 Z M71.9849133,16.3404588 C74.9834905,16.3404588 76.6862289,14.366997 76.6862289,11.3239991 C76.6862289,8.32184185 74.9834905,6.38884597 72.0665148,6.38884597 L68.161829,6.38884597 L68.161829,16.3404588 L71.9849133,16.3404588 Z" id="Fill-11" fill="#212121"></path>
                <path d="M46.8165794,21.8345282 L46.869224,21.8978102 L46.932907,21.8467271 C48.9344212,20.2299849 49.2567421,17.8517613 49.2696485,16.5784957 C49.2968199,14.258789 48.0139896,12.8048265 47.046008,11.91335 L46.989967,11.8613139 L46.9332467,11.91335 C45.9657746,12.8048265 44.6824348,14.258789 44.7084175,16.5784957 C44.7194559,17.5725196 44.9122031,19.0417308 45.7584228,20.3918116 C46.0102678,20.857659 46.5823958,21.5552865 46.8165794,21.8345282" id="Fill-13" fill="#212121"></path>
                <path d="M53.6663759,19.1605839 C51.1638807,19.1605839 49.0854102,20.1325777 47.4910913,22.0493899 L47.4452555,22.1044415 L47.4872571,22.1622983 C48.4170441,23.4404069 48.9428487,24.7781256 49.1723763,25.4625887 L49.2014811,25.5474453 L49.2867043,25.5206208 C51.8749456,24.6767885 53.5706959,22.3358686 53.8239256,19.2596417 L53.8321168,19.1623372 L53.6663759,19.1605839 Z" id="Fill-15" fill="#212121"></path>
                <path d="M47.4837431,22.8337355 C45.6968428,20.3962024 43.2892718,19.1605839 40.327775,19.1605839 L40.1459854,19.1626785 L40.1549228,19.268741 C40.5268688,23.6369161 43.4887459,26.459854 47.7020428,26.459854 C48.1722997,26.459854 48.6602412,26.425198 49.1508449,26.3591232 L49.270073,26.3431282 L49.2307106,26.229449 C48.9409121,25.3689527 48.4014383,24.0823024 47.4837431,22.8337355" id="Fill-17" fill="#212121"></path>
                <g id="Group-21" transform="translate(34.671533, 6.386861)">
                    <mask id="mask-2" fill="white">
                        <use xlink:href="#path-1"></use>
                    </mask>
                    <g id="Clip-20"></g>
                    <path d="M25.4604745,12.8540876 L25.4604745,12.8414964 C25.4628467,12.8279927 25.4663139,12.8133942 25.4657664,12.7995255 C25.4582847,12.6057299 25.4477007,12.4110219 25.4414964,12.2175912 C25.4314599,11.8376642 25.3887591,11.4612044 25.3376642,11.0856569 C25.2400365,10.3737956 25.0801825,9.67671533 24.8597445,8.99332117 C24.5237956,7.94824818 24.0586496,6.96357664 23.4668613,6.03766423 C22.8896715,5.13255474 22.2039051,4.31923358 21.4248905,3.58529197 C20.9745255,3.16120438 20.4909489,2.77635036 19.9821898,2.42507299 C19.2622993,1.92671533 18.500073,1.50627737 17.6931387,1.16631387 C16.9217883,0.84149635 16.1270803,0.596605839 15.3077372,0.427445255 C14.6389416,0.290218978 13.9621168,0.204452555 13.2789051,0.185839416 C12.8210584,0.173065693 12.3626642,0.192408759 11.9048175,0.209014599 C11.395146,0.22689781 10.8900365,0.301350365 10.3904015,0.397518248 C9.07361314,0.649890511 7.82781022,1.09879562 6.65335766,1.74678832 C5.35518248,2.46485401 4.21631387,3.3820073 3.23693431,4.49405109 C2.4360219,5.40408759 1.77854015,6.40992701 1.26521898,7.50992701 C0.855182482,8.39021898 0.550255474,9.30536496 0.350255474,10.2539051 C0.213394161,10.909927 0.12270073,11.5721533 0.100255474,12.2400365 C0.0841970803,12.7411314 0.0701459854,13.2431387 0.117408759,13.7433212 C0.148430657,14.0734307 0.177445255,14.4037226 0.222883212,14.7323723 C0.321423358,15.4520803 0.494963504,16.1560949 0.725620438,16.8442336 C0.95810219,17.5416788 1.24989051,18.2154015 1.60043796,18.8619343 C2.19131387,19.9515328 2.92908759,20.9334672 3.80025547,21.8139416 C4.01959854,22.0343796 4.25116788,22.2424088 4.48474453,22.4466058 C5.305,23.164854 6.20664234,23.7619343 7.18364964,24.2464234 C7.79021898,24.5482482 8.41959854,24.7987956 9.06813869,24.9969708 C9.7469708,25.2048175 10.4363869,25.3617518 11.1418613,25.4440511 C11.5062774,25.4860219 11.8725182,25.5139416 12.2372993,25.5347445 C12.4743431,25.5473358 12.7146715,25.5566423 12.9493431,25.5323723 C13.5991606,25.4633942 14.1181387,25.1548175 14.4913139,24.6166788 C14.8214234,24.1409489 14.9332847,23.6101095 14.8475182,23.0391241 C14.7619343,22.4708759 14.4878467,22.009562 14.0371168,21.6562774 C13.6332847,21.3404015 13.1683212,21.2101095 12.6610219,21.1987956 C12.3893066,21.1925912 12.1174088,21.1785401 11.8473358,21.1515328 C11.2040876,21.0862044 10.5790876,20.9371168 9.97105839,20.7190511 C9.31740876,20.484562 8.70262774,20.174708 8.12744526,19.7856569 C7.56594891,19.4071898 7.05828467,18.9670438 6.60226277,18.4663139 C6.30007299,18.1323723 6.02470803,17.7792701 5.77908759,17.4015328 C5.36540146,16.764854 5.04532847,16.0831022 4.81521898,15.3577372 C4.5920438,14.6539051 4.47124088,13.9320073 4.43711679,13.1962409 C4.42562044,12.929635 4.44532847,12.6612044 4.45244526,12.3940511 C4.46467153,11.9265328 4.53967153,11.4670438 4.64277372,11.0117518 C4.85864964,10.0677737 5.22908759,9.18857664 5.75335766,8.37434307 C6.17963504,7.71284672 6.68711679,7.12178832 7.27817518,6.6029927 C7.76083942,6.17890511 8.28456204,5.81375912 8.85062044,5.51156934 C9.61430657,5.10445255 10.4216058,4.82014599 11.2748905,4.66467153 C11.9581022,4.54058394 12.6471533,4.50062044 13.3378467,4.54605839 C14.0086496,4.59040146 14.6650365,4.7179562 15.3051825,4.92379562 C16.5307299,5.31868613 17.6059124,5.9650365 18.5376642,6.8509854 C18.9272628,7.22105839 19.2752555,7.6279927 19.5838321,8.06759124 C20.1679562,8.89879562 20.5925912,9.80463504 20.8466058,10.790219 C20.9840146,11.3217883 21.0690511,11.8610219 21.0956934,12.409562 C21.1018978,12.5181387 21.1051825,12.6261679 21.1081022,12.734927 L21.1064599,12.734927 L21.094781,13.2440511 C21.0847445,13.4077372 21.0763504,13.5719708 21.0584672,13.735292 C21.0341971,13.9590146 21.0112044,14.1838321 20.9655839,14.4037226 C20.9009854,14.7071898 20.8223358,15.0077372 20.7376642,15.3066423 C20.6312774,15.6814599 20.4885766,16.0442336 20.3163139,16.3935036 C20.1723358,16.6860219 20.0042701,16.9663139 19.8445985,17.2518978 C19.8237956,17.2889416 19.8150365,17.3236131 19.8416788,17.3588321 C19.8834672,17.4146715 19.9292701,17.4683212 19.9737956,17.5245255 C19.8705109,17.5542701 19.7871168,17.6192336 19.729635,17.720146 C19.704635,17.6597445 19.6825547,17.6062774 19.6588321,17.5517153 C19.5575547,17.684927 19.4654015,17.814854 19.3646715,17.9387591 C19.209927,18.1289051 19.0491606,18.3139416 18.8935036,18.5042701 C18.8759854,18.5261679 18.8668613,18.5674088 18.8736131,18.594781 C18.9106569,18.7413139 19.0383942,18.8413139 19.1940511,18.8557299 C19.334927,18.8674088 19.4789051,18.7821898 19.5409489,18.6487956 C19.5533577,18.6205109 19.5632117,18.590219 19.5794526,18.549708 C19.5566423,18.7539051 19.6363869,18.8909489 19.8139416,18.9783577 C19.5785401,19.0259854 19.4617518,19.1462409 19.4573723,19.3332847 C19.4531752,19.4978832 19.5613869,19.6414964 19.7210584,19.6847445 C19.88,19.7285401 20.050438,19.6551825 20.1285401,19.5071898 C20.1774453,19.4139416 20.1823723,19.3170438 20.1480657,19.2179562 C20.1137591,19.1192336 20.0405839,19.0526277 19.9477007,19.0017153 C20.0987956,18.9907664 20.204635,18.915219 20.2843796,18.779635 C20.309562,18.9309124 20.3858394,19.029635 20.5110219,19.0964234 C20.3039051,19.1517153 20.1894891,19.2657664 20.1765328,19.4267153 C20.1617518,19.5929562 20.2383942,19.7425912 20.384562,19.8024453 C20.5977007,19.8893066 20.7613869,19.8163139 20.8843796,19.6190511 C20.9018978,19.7794526 20.9812774,19.8858394 21.1175912,19.9551825 C20.9059124,20.0084672 20.7922263,20.1177737 20.7745255,20.2809124 C20.7555474,20.460292 20.8358394,20.5841971 21.0382117,20.6865693 C20.8035401,20.7082847 20.664854,20.8298175 20.6573723,21.0208759 C20.6487956,21.2033577 20.769781,21.3560949 20.9466058,21.3885766 C21.1150365,21.4192336 21.2867518,21.3168613 21.3413139,21.1537226 C21.4042701,20.9681387 21.3179562,20.8022628 21.0938686,20.6924088 C21.2675912,20.700073 21.385292,20.6298175 21.4633942,20.4986131 C21.4931387,20.5571898 21.5137591,20.6230657 21.5531752,20.6739781 C21.5931387,20.7252555 21.6524453,20.7635766 21.700438,20.805 C21.5144891,20.8414964 21.3907664,20.959927 21.3721533,21.1263504 C21.354635,21.2858394 21.4380292,21.4367518 21.5825547,21.5026277 C21.6728832,21.5440511 21.7650365,21.5471533 21.8601095,21.5139416 C21.9529927,21.4809124 22.0170438,21.4143066 22.0703285,21.325073 C22.0821898,21.3686861 22.0914964,21.4020803 22.1055474,21.4526277 C22.2091971,21.3314599 22.3055474,21.2227007 22.3980657,21.1110219 C22.5714234,20.9015328 22.7429562,20.6887591 22.9155839,20.4778102 C22.9414964,20.4455109 22.9477007,20.415219 22.9219708,20.3801825 C22.8918613,20.3404015 22.8612044,20.2998905 22.8318248,20.2612044 C22.8685036,20.2416788 22.9048175,20.2256204 22.9371168,20.2048175 C22.9703285,20.1827372 22.9995255,20.1542701 23.0318248,20.1281752 C23.0531752,20.1624818 23.0721533,20.1940511 23.0958759,20.234562 C24.6579197,18.014854 25.4506204,15.5608394 25.4657664,12.8537226 L25.4604745,12.8540876 Z M19.5794526,18.5362044 C19.5708759,18.3466058 19.4955109,18.2234307 19.3405839,18.159927 C19.4037226,18.1387591 19.4739781,18.1270803 19.5320073,18.0936861 C19.5893066,18.0608394 19.6351095,18.0066423 19.6825547,17.9643066 C19.7059124,18.0139416 19.7270803,18.0761679 19.7637591,18.1267153 C19.7993431,18.1752555 19.8511679,18.2122993 19.8991606,18.2586496 C19.7444161,18.2820073 19.6431387,18.3721533 19.5794526,18.5362044 Z M21.9708759,17.1285401 C22.0040876,17.1077372 22.034562,17.0889416 22.0694161,17.0666788 C22.0914964,17.0991606 22.1112044,17.1276277 22.1336496,17.1591971 C22.1028102,17.1831022 22.0727007,17.2064599 22.0413139,17.230365 C22.0166788,17.1956934 21.9942336,17.1622993 21.9708759,17.1285401 Z M22.0310949,17.8832847 C21.9909489,17.9157664 21.949708,17.9495255 21.905,17.9860219 C21.8727007,17.9409489 21.8411314,17.8971533 21.8071898,17.8508029 C21.8518978,17.8216058 21.8977007,17.7925912 21.9462409,17.7615693 C21.9736131,17.8008029 22.0018978,17.8404015 22.0310949,17.8832847 Z M21.3862044,16.2832847 C21.4150365,16.2650365 21.4414964,16.2475182 21.4714234,16.2281752 C21.4904015,16.2533577 21.5088321,16.2787226 21.5294526,16.3079197 C21.5011679,16.33 21.474708,16.3493431 21.4458759,16.3719708 C21.425438,16.3404015 21.4064599,16.3124818 21.3862044,16.2832847 Z M21.4393066,17.0347445 C21.3971533,17.0666788 21.355,17.0991606 21.3113869,17.1331022 C21.2809124,17.0880292 21.2489781,17.0429562 21.2159489,16.9933212 C21.260292,16.9654015 21.3060949,16.9365693 21.3511679,16.9071898 C21.3805474,16.9495255 21.4101095,16.9918613 21.4393066,17.0347445 Z M21.2270803,17.6017153 C21.2643066,17.6548175 21.3033577,17.710292 21.3422263,17.7657664 C21.2913139,17.8048175 21.2365693,17.8449635 21.1867518,17.8841971 C21.1436861,17.8256204 21.1009854,17.7661314 21.0588321,17.7088321 C21.1108394,17.675438 21.1683212,17.6400365 21.2270803,17.6017153 Z M20.8739781,15.384562 C20.8920438,15.4088321 20.9093796,15.4316423 20.9289051,15.4586496 C20.904635,15.4794526 20.8820073,15.4964234 20.8560949,15.5170438 C20.8367518,15.4900365 20.820146,15.4654015 20.7978832,15.435292 C20.8245255,15.4183212 20.8471533,15.4026277 20.8739781,15.384562 Z M20.754635,16.0745255 C20.7779927,16.1082847 20.8022628,16.1429562 20.8292701,16.180365 C20.7958759,16.2070073 20.7632117,16.2336496 20.7279927,16.2610219 C20.7022628,16.225073 20.6772628,16.1876642 20.6478832,16.1466058 C20.684927,16.1214234 20.7185036,16.0993431 20.754635,16.0745255 Z M20.635292,16.7624818 C20.6705109,16.809927 20.7057299,16.859927 20.7422263,16.9090146 C20.6924088,16.9464234 20.6411314,16.9843796 20.5893066,17.0230657 C20.5515328,16.9685036 20.5137591,16.9144891 20.4758029,16.859562 C20.5267153,16.8283577 20.5816423,16.7949635 20.635292,16.7624818 Z M20.3137591,18.590219 C20.2894891,18.4528102 20.2230657,18.3582847 20.100073,18.2887591 C20.2310949,18.2668613 20.3270803,18.2104745 20.3907664,18.1225182 C20.4453285,18.2055474 20.4998905,18.2878467 20.5564599,18.3743431 C20.455,18.4068248 20.3737956,18.4763504 20.3137591,18.590219 Z M20.459562,17.7962409 C20.4117518,17.7265328 20.3593796,17.6484307 20.3091971,17.574708 C20.3712409,17.5376642 20.4420438,17.4956934 20.5113869,17.4551825 C20.5551825,17.5150365 20.6044526,17.5818248 20.649708,17.6435036 C20.5872993,17.6931387 20.5186861,17.7486131 20.459562,17.7962409 Z M20.909927,19.4581022 C20.8914964,19.3044526 20.8239781,19.205365 20.6896715,19.1318248 C20.8192336,19.1124818 20.9146715,19.0621168 20.9768978,18.9765328 C21.0387591,19.0612044 21.100073,19.1458759 21.1615693,19.2310949 C21.0588321,19.2626642 20.9712409,19.3329197 20.909927,19.4581022 Z M21.0511679,18.6309124 C21.0064599,18.5659489 20.9570073,18.4933212 20.9108394,18.4276277 C20.9745255,18.3880292 21.0425912,18.3445985 21.1086496,18.3040876 C21.1493431,18.3622993 21.1944161,18.4272628 21.2372993,18.4889416 C21.1792701,18.5343796 21.1141241,18.5840146 21.0511679,18.6309124 Z M21.5055474,20.2854745 C21.4765328,20.1484307 21.4079197,20.0515328 21.2728832,19.984562 C21.4154015,19.9714234 21.5119343,19.9132117 21.5774453,19.8263504 C21.6338321,19.9082847 21.6894891,19.9907664 21.7493431,20.0772628 C21.6506204,20.1070073 21.5654015,20.1710584 21.5055474,20.2854745 Z M21.6486131,19.4914964 C21.5980657,19.4212409 21.5407664,19.3433212 21.4904015,19.2716058 C21.5559124,19.2301825 21.6314599,19.1820073 21.7031752,19.1382117 C21.7484307,19.2022628 21.8013504,19.2761679 21.8480657,19.3433212 C21.7834672,19.3909489 21.7124818,19.4442336 21.6486131,19.4914964 Z M21.7727007,18.7422263 C21.734562,18.6854745 21.6942336,18.625438 21.654635,18.5644891 C21.709927,18.5294526 21.7692336,18.489854 21.829635,18.449708 C21.8666788,18.5018978 21.9060949,18.5560949 21.9444161,18.6091971 C21.8878467,18.6524453 21.8287226,18.6978832 21.7727007,18.7422263 Z M22.1031752,21.154635 C22.0816423,21.0006204 22.0090146,20.895146 21.8628467,20.8270803 C22.0084672,20.8090146 22.1112044,20.7473358 22.1858394,20.6287226 C22.2135766,20.7613869 22.280365,20.8573723 22.4018978,20.9279927 C22.2597445,20.9573723 22.1664964,21.0298175 22.1031752,21.154635 Z M22.2360219,20.3562774 C22.1871168,20.2818248 22.1327372,20.1989781 22.0843796,20.125438 C22.1511679,20.0836496 22.2292701,20.0336496 22.3028102,19.9862044 C22.3458759,20.0502555 22.394781,20.1223358 22.4409489,20.1904015 C22.375438,20.2436861 22.3013504,20.3020803 22.2360219,20.3562774 Z M22.3695985,19.6055474 C22.3268978,19.5433212 22.2825547,19.4761679 22.2376642,19.4113869 C22.295146,19.3756204 22.3606569,19.3351095 22.4252555,19.2955109 C22.4643066,19.3522628 22.505,19.4104745 22.5455109,19.4675912 C22.4869343,19.5135766 22.4252555,19.5626642 22.3695985,19.6055474 Z M22.505,18.8425912 C22.4717883,18.7929562 22.4371168,18.7429562 22.4015328,18.6911314 C22.4495255,18.6606569 22.4978832,18.630365 22.5455109,18.6006204 C22.5778102,18.6471533 22.6104745,18.6916788 22.6418613,18.7367518 C22.5971533,18.7719708 22.5509854,18.8070073 22.505,18.8425912 Z M22.6383942,18.0814599 C22.6163139,18.0473358 22.5953285,18.0166788 22.5723358,17.9827372 C22.5998905,17.9661314 22.6245255,17.950438 22.655,17.9320073 C22.6756204,17.9575547 22.6949635,17.9838321 22.7195985,18.0157664 C22.6894891,18.0400365 22.6646715,18.0593796 22.6383942,18.0814599 Z M23.1008029,19.7024453 C23.0654015,19.6528102 23.03,19.6022628 22.9933212,19.5482482 C23.0422263,19.5172263 23.0936861,19.4838321 23.1477007,19.449708 C23.1809124,19.4973358 23.2121168,19.5424088 23.2436861,19.5883942 C23.1964234,19.6261679 23.1486131,19.6650365 23.1008029,19.7024453 Z M23.2374818,18.9477007 C23.209927,18.9062774 23.1847445,18.8686861 23.1571898,18.829635 C23.1900365,18.8088321 23.2216058,18.7889416 23.2570073,18.7674088 C23.2820073,18.8002555 23.305365,18.8327372 23.3329197,18.8686861 C23.3024453,18.8944161 23.2727007,18.9186861 23.2374818,18.9477007 Z" id="Fill-19" fill="#212121" mask="url(#mask-2)"></path>
                </g>
                <path d="M55.6569241,26.9116902 C55.6550346,26.6605146 55.4552198,26.4617459 55.202735,26.4598573 C54.9462351,26.4589131 54.7445307,26.6598064 54.7445307,26.9152312 C54.7433497,27.1718364 54.9462351,27.373438 55.2017903,27.3722576 C55.4582902,27.3715494 55.6585775,27.1687676 55.6569241,26.9116902" id="Fill-22" fill="#212121"></path>
                <path d="M53.3781098,24.6350445 C53.1222758,24.6335788 52.9201987,24.8343802 52.91971,25.0901456 C52.918977,25.3454224 53.1190993,25.5462238 53.3756663,25.5474453 C53.6305229,25.5474453 53.8321112,25.3481095 53.8321112,25.0928327 C53.833333,24.8368231 53.632722,24.6362659 53.3781098,24.6350445" id="Fill-24" fill="#212121"></path>
                <path d="M54.2985095,25.5474953 C54.0402833,25.5438126 53.8338496,25.7439045 53.8321313,25.9984999 C53.8301676,26.2526043 54.0275192,26.4563789 54.2781362,26.459816 C54.5368534,26.4630077 54.7425507,26.2646344 54.7445144,26.0088114 C54.7462326,25.7549525 54.548881,25.551178 54.2985095,25.5474953" id="Fill-26" fill="#212121"></path>
                <path d="M54.7445255,26.9165511 C54.7445255,27.168301 54.94742,27.3722628 55.2008532,27.3722628 C55.4530537,27.3722628 55.6569343,27.168301 55.6569343,26.9165511 C55.6569343,26.6640621 55.4530537,26.459854 55.2008532,26.459854 C54.9479131,26.459854 54.7445255,26.6640621 54.7445255,26.9165511" id="Fill-28" fill="#212121"></path>
                <path d="M55.205372,27.3722949 C54.9581353,27.3693226 54.7492972,27.5731727 54.7445903,27.8208643 C54.7403788,28.0688036 54.9422805,28.2781029 55.1900126,28.2845429 C55.437497,28.2904875 55.648317,28.0896096 55.6567399,27.8399365 C55.6641718,27.5902635 55.4575633,27.3762579 55.205372,27.3722949" id="Fill-30" fill="#212121"></path>
                <path d="M52.9197622,25.9953158 C52.9159212,26.249339 53.1169303,26.4575253 53.3691519,26.45983 C53.6231659,26.4623907 53.8303205,26.260094 53.8321129,26.0078633 C53.8331372,25.7530719 53.6311038,25.5489827 53.3783701,25.5474462 C53.1276849,25.5469341 52.9238592,25.7471822 52.9197622,25.9953158" id="Fill-32" fill="#212121"></path>
                <path d="M54.7445196,26.9173486 C54.7458101,26.6688649 54.5382947,26.4603761 54.2894826,26.45986 C54.041703,26.4585699 53.8334133,26.6655105 53.8321228,26.9147683 C53.8308323,27.1627358 54.0383477,27.3709666 54.2863854,27.3722568 C54.5349393,27.3735469 54.743229,27.1658322 54.7445196,26.9173486" id="Fill-34" fill="#212121"></path>
                <path d="M55.2013762,27.3722628 C54.9502288,27.3722628 54.7406793,27.5829783 54.7445791,27.8326192 C54.7479589,28.080703 54.9528287,28.283374 55.2008562,28.2846715 C55.4517436,28.2846715 55.6610331,28.072918 55.6568733,27.8237961 C55.6540135,27.5757123 55.4496637,27.3722628 55.2013762,27.3722628" id="Fill-36" fill="#212121"></path>
                <path d="M52.9201143,25.9893506 C52.9095683,26.2339572 53.1056161,26.4436586 53.3573684,26.4590818 C53.6026309,26.4739638 53.8197707,26.2718387 53.8316688,26.0180324 C53.8427556,25.7742376 53.6467079,25.5629127 53.3946851,25.5483012 C53.1488818,25.5326074 52.9320124,25.7347325 52.9201143,25.9893506" id="Fill-38" fill="#212121"></path>
                <path d="M53.8321031,26.911378 C53.829902,26.6583594 53.6298733,26.459854 53.3767422,26.459854 C53.1200342,26.459854 52.9172542,26.6633151 52.9197305,26.9201882 C52.9222068,27.1732068 53.1225105,27.3722628 53.3759168,27.3722628 C53.6323496,27.3722628 53.8340291,27.1693523 53.8321031,26.911378" id="Fill-40" fill="#212121"></path>
                <path d="M54.2883212,28.2846715 C54.5431855,28.2846715 54.7445255,28.0829929 54.7445255,27.8277736 C54.7445255,27.5731092 54.5445721,27.3722628 54.2897078,27.3722628 C54.0334568,27.3722628 53.8321168,27.5731092 53.8321168,27.8277736 C53.8321168,28.0829929 54.0334568,28.2846715 54.2883212,28.2846715" id="Fill-42" fill="#212121"></path>
                <path d="M55.2024121,28.2846727 C54.9534009,28.2841148 54.7473323,28.4874505 54.7445438,28.7365296 C54.742313,28.9861667 54.9447566,29.1934072 55.1937679,29.1970332 C55.4469618,29.2006592 55.6569343,28.9942555 55.6569343,28.7409924 C55.6569343,28.4905186 55.4522599,28.2863462 55.2024121,28.2846727" id="Fill-44" fill="#212121"></path>
                <path d="M55.1167516,28.2924692 C54.9024381,28.3313926 54.7416364,28.5364997 54.7445649,28.7805302 C54.7501557,28.9569278 54.8305566,29.100199 54.9924232,29.1871556 C55.0238381,29.2039948 55.0877328,29.1987498 55.1146218,29.1763896 C55.2836766,29.0378112 55.4410173,28.8873625 55.6106046,28.7515447 C55.6657137,28.7076523 55.6635839,28.669281 55.6454804,28.6132423 C55.5709366,28.3827384 55.3531621,28.2502332 55.1167516,28.2924692" id="Fill-46" fill="#212121"></path>
                <path d="M52.0073365,26.9126823 C52.0041178,27.1616099 52.2098212,27.3698784 52.4588306,27.3722185 C52.709303,27.3757286 52.9173472,27.1700928 52.9196881,26.9214577 C52.9220289,26.67253 52.7180812,26.4630915 52.468194,26.4598739 C52.2180142,26.4575338 52.0108478,26.6622921 52.0073365,26.9126823" id="Fill-48" fill="#212121"></path>
                <path d="M52.9197534,27.8241816 C52.916199,28.0721435 53.1217666,28.2810935 53.3702843,28.28464 C53.6196907,28.2875954 53.8288128,28.0824875 53.8320711,27.833639 C53.8356256,27.5862683 53.6312427,27.3767272 53.3809478,27.3722941 C53.1324301,27.3693386 52.9227155,27.5762198 52.9197534,27.8241816" id="Fill-50" fill="#212121"></path>
                <path d="M54.2862086,28.2846839 C54.0307837,28.2852885 53.8312141,28.4845155 53.8321199,28.7423921 C53.8327237,28.9987571 54.0338029,29.1979842 54.2910393,29.1970772 C54.5461623,29.1952633 54.745128,28.9960363 54.7445242,28.7390666 C54.7436184,28.4814924 54.5416335,28.28287 54.2862086,28.2846839" id="Fill-52" fill="#212121"></path>
                <path d="M56.0797964,27.3842851 C55.8664532,27.4263742 55.7241336,27.5593011 55.6732469,27.7689472 C55.624265,27.9703354 55.6865808,28.1408228 55.8468604,28.2846715 C56.0871437,28.038264 56.3238894,27.7921229 56.5693431,27.5374574 C56.4539635,27.4071944 56.2819827,27.3440608 56.0797964,27.3842851" id="Fill-54" fill="#212121"></path>
                <path d="M54.3180879,29.1978039 C54.0499683,29.1833653 53.8327304,29.3867344 53.8321211,29.6536948 C53.831207,29.8705809 53.9765401,30.0598186 54.1843328,30.1058992 C54.2102307,30.1123505 54.2492299,30.1108145 54.2732997,30.0954543 C54.4110157,30.003293 54.5481223,29.9074454 54.6806587,29.806068 C54.7108222,29.7848709 54.7370248,29.7406335 54.741595,29.7025402 C54.7711491,29.4444888 54.5734109,29.2091704 54.3180879,29.1978039" id="Fill-56" fill="#212121"></path>
                <path d="M52.0073008,26.9136526 C52.0066605,27.1666493 52.2064244,27.3706478 52.4580501,27.3722491 C52.7115966,27.3741706 52.9164826,27.1736948 52.9196839,26.9219791 C52.922245,26.6654597 52.7202402,26.4585789 52.4622118,26.4598599 C52.210266,26.4598599 52.0079411,26.6612965 52.0073008,26.9136526" id="Fill-58" fill="#212121"></path>
                <path d="M52.007337,27.8328549 C52.0112331,28.0808318 52.221948,28.2888333 52.4693513,28.2846083 C52.7170793,28.2813583 52.9225993,28.0704317 52.9196772,27.8224549 C52.9164305,27.574478 52.7057156,27.3681015 52.4602604,27.3723265 C52.210909,27.3752515 52.0040902,27.5865031 52.007337,27.8328549" id="Fill-60" fill="#212121"></path>
                <path d="M52.919708,25.3007669 C53.020666,25.4743487 53.2103108,25.5690037 53.3993977,25.5432667 C53.5993614,25.5140981 53.7644639,25.3676831 53.8141062,25.1703661 C53.8670952,24.9593227 53.8012773,24.785169 53.6414737,24.6350365 C53.3974455,24.8595203 53.1578796,25.0802866 52.919708,25.3007669" id="Fill-62" fill="#212121"></path>
                <path d="M53.3834864,28.2847377 C53.1267107,28.280442 52.919708,28.4859751 52.919708,28.7433873 C52.9216858,28.9968341 53.1240737,29.1970803 53.3755754,29.1970803 C53.6287252,29.1970803 53.8297947,28.997495 53.8321021,28.7440481 C53.8340798,28.491923 53.6363065,28.2880421 53.3834864,28.2847377" id="Fill-64" fill="#212121"></path>
                <path d="M54.2871423,29.197084 C54.0336772,29.1980956 53.8314444,29.401751 53.8321185,29.6539601 C53.8321185,29.9071807 54.0377218,30.1101617 54.2898388,30.1094874 C54.5422927,30.108813 54.7445255,29.9065063 54.7445255,29.651937 C54.7435144,29.3997279 54.5392592,29.1960725 54.2871423,29.197084" id="Fill-66" fill="#212121"></path>
                <path d="M52.0073768,27.8339025 C52.0120885,28.0799412 52.2186776,28.2846715 52.4633226,28.2846715 C52.7130416,28.2846715 52.9243424,28.0687082 52.9196307,27.8223071 C52.9160063,27.574819 52.7086924,27.3722628 52.4640474,27.3722628 C52.213241,27.3722628 52.0026652,27.5846025 52.0073768,27.8339025" id="Fill-68" fill="#212121"></path>
                <path d="M52.2343682,28.284681 C52.1052603,28.2852435 52.0065529,28.3861199 52.0073035,28.5143717 C52.0082418,28.642061 52.1088258,28.7412499 52.2375583,28.7408749 C52.3657279,28.7399373 52.4644353,28.6394359 52.463497,28.5104342 C52.462934,28.3825574 52.362913,28.283556 52.2343682,28.284681" id="Fill-70" fill="#212121"></path>
                <path d="M53.1508422,29.1971061 C53.0272103,29.1952078 52.92143,29.2984734 52.9197208,29.4226199 C52.9183914,29.5460071 53.0209433,29.6515506 53.1453348,29.653259 C53.2680172,29.6551573 53.3743672,29.551512 53.3758865,29.4285045 C53.3777856,29.3045478 53.2750439,29.1991941 53.1508422,29.1971061" id="Fill-72" fill="#212121"></path>
                <path d="M54.0618644,30.1094987 C53.9556967,30.1085018 53.8605519,30.1850641 53.837926,30.2917331 C53.813753,30.404184 53.8665468,30.5156381 53.9678799,30.5575082 C53.9920529,30.5674772 54.0270553,30.569471 54.0492945,30.5571094 C54.1127244,30.5240121 54.1703527,30.4779551 54.2345562,30.4466522 C54.283869,30.423524 54.2877367,30.3864391 54.2883169,30.3445691 C54.2890904,30.216367 54.1858234,30.110695 54.0618644,30.1094987" id="Fill-74" fill="#212121"></path>
                <path d="M51.3241686,27.3722712 C51.1996744,27.3711984 51.0961792,27.4724752 51.0948935,27.5979984 C51.0942507,27.7230925 51.1958174,27.8273733 51.3207401,27.8284462 C51.4458772,27.8301627 51.5500152,27.726311 51.5510865,27.6022898 C51.5521579,27.4771958 51.4499484,27.3733441 51.3241686,27.3722712" id="Fill-76" fill="#212121"></path>
                <path d="M52.0072993,25.8877917 C52.1987856,26.0208947 52.4995981,26.0415217 52.7215632,25.9381918 C52.9332583,25.8397268 52.9826207,25.6690671 52.8342022,25.5474453 C52.5598931,25.6605049 52.2882342,25.7729808 52.0072993,25.8877917" id="Fill-78" fill="#212121"></path>
                <path d="M51.3203565,28.2846888 C51.1970325,28.2862359 51.0971356,28.3856934 51.0949255,28.5094627 C51.0927154,28.6356632 51.1954854,28.7397621 51.3221246,28.7408672 C51.4485427,28.7419722 51.5517547,28.6383154 51.5510917,28.5116729 C51.5510917,28.3856934 51.4474377,28.2831417 51.3203565,28.2846888" id="Fill-80" fill="#212121"></path>
                <path d="M51.957077,26.5095446 C51.929706,26.4766441 51.9078832,26.4415054 51.8213316,26.4708249 C51.58313,26.5496072 51.3423391,26.623018 51.0948905,26.7011289 C51.1932782,26.8792844 51.4581111,26.9589619 51.7192452,26.8931608 C51.9696528,26.8302692 52.0795067,26.653009 51.957077,26.5095446" id="Fill-82" fill="#212121"></path>
                <path d="M52.2358616,29.1970803 C52.1099722,29.1970803 52.0089414,29.2943819 52.007345,29.4201675 C52.0048363,29.5493713 52.1058671,29.6528254 52.2340372,29.6532811 C52.3603827,29.6539648 52.4614135,29.5552959 52.463466,29.4297382 C52.4657466,29.2998508 52.3640316,29.197536 52.2358616,29.1970803" id="Fill-84" fill="#212121"></path>
                <path d="M53.1465537,29.1970819 C53.023945,29.1982631 52.9224022,29.2974847 52.9197986,29.419858 C52.9162481,29.5462474 53.0175542,29.6509025 53.1441867,29.6532649 C53.2698725,29.6549186 53.3747289,29.5523897 53.3759124,29.425764 C53.3759124,29.3005558 53.2722394,29.1966094 53.1465537,29.1970819" id="Fill-86" fill="#212121"></path>
                <path d="M50.4190982,27.3724515 C50.2893549,27.3673924 50.1866885,27.4646398 50.1827398,27.5916799 C50.1768167,27.7201252 50.2735601,27.8232749 50.4021752,27.828334 C50.5307903,27.83255 50.634867,27.7361457 50.6385337,27.6082625 C50.6430465,27.4798172 50.5468672,27.3766674 50.4190982,27.3724515" id="Fill-88" fill="#212121"></path>
                <path d="M51.3366505,28.28504 C51.2119113,28.2777558 51.0997929,28.3794423 51.0950968,28.5044379 C51.0898137,28.6259371 51.18667,28.7305372 51.3090611,28.7404436 C51.4358548,28.7483105 51.5465057,28.6477895 51.5509083,28.5219198 C51.5558979,28.3995465 51.4602156,28.2937809 51.3366505,28.28504" id="Fill-90" fill="#212121"></path>
                <path d="M51.3342671,28.2848332 C51.2006965,28.2801591 51.0984071,28.3773805 51.0949662,28.5082554 C51.0918381,28.6360143 51.1859944,28.7357286 51.3133087,28.7407143 C51.445628,28.7453884 51.548543,28.648167 51.5510455,28.515734 C51.553548,28.3898447 51.460643,28.2907537 51.3342671,28.2848332" id="Fill-92" fill="#212121"></path>
                <path d="M52.2325094,29.1970869 C52.1098344,29.1987172 52.0037989,29.3082717 52.0073878,29.4305424 C52.0099979,29.5485744 52.1121183,29.6512817 52.2298993,29.6532381 C52.3538792,29.6558465 52.4618723,29.5485744 52.4635036,29.4263037 C52.4635036,29.304033 52.354858,29.1961087 52.2325094,29.1970869" id="Fill-94" fill="#212121"></path>
                <path d="M53.0273145,30.1486472 C52.900742,30.2388402 52.8828531,30.4084339 52.9895115,30.5656934 C53.0475661,30.5313893 53.09752,30.4997832 53.1518618,30.4712606 C53.2048535,30.4435089 53.2588578,30.4180699 53.3135371,30.3949435 C53.3840802,30.3664209 53.3891431,30.3178554 53.3567405,30.2477053 C53.2926105,30.1162702 53.1407235,30.0684757 53.0273145,30.1486472" id="Fill-96" fill="#212121"></path>
                <path d="M50.3812886,27.3722628 C50.2613068,27.3722628 50.1887703,27.4388686 50.1828397,27.557938 C50.176909,27.6865876 50.2448835,27.7641423 50.3717083,27.7687044 C50.5003579,27.7741788 50.5687886,27.7011861 50.5833871,27.5761861 C50.5733506,27.4498175 50.5103944,27.3731752 50.3812886,27.3722628" id="Fill-98" fill="#212121"></path>
                <path d="M51.1004722,28.4425182 C51.0721875,28.5497263 51.1552167,28.6423358 51.2633371,28.6318431 C51.339067,28.6231752 51.4093225,28.5483577 51.481859,28.5027372 C51.4827714,28.4762774 51.48414,28.4498175 51.4850524,28.4260949 C51.4175342,28.3745438 51.3477349,28.2846715 51.2774795,28.2846715 C51.2136108,28.2860401 51.1187203,28.3759124 51.1004722,28.4425182" id="Fill-100" fill="#212121"></path>
                <path d="M51.0948905,29.3322342 C51.1455292,29.3897159 51.1925182,29.4786758 51.2541058,29.4932743 C51.3015511,29.5055918 51.3718066,29.4225626 51.4762774,29.3523072 C51.3768248,29.2756648 51.3161496,29.193548 51.2623175,29.1971977 C51.2039234,29.1990225 51.1500912,29.2825079 51.0948905,29.3322342" id="Fill-102" fill="#212121"></path>
                <path d="M52.0077204,30.2290239 C52.015932,30.2842247 52.0802569,30.3622356 52.1345452,30.3699911 C52.181078,30.3777466 52.2417532,30.3102283 52.3448554,30.2427101 C52.2444904,30.1747356 52.1892897,30.108586 52.1345452,30.1094984 C52.0898372,30.1117794 52.0004211,30.1938962 52.0077204,30.2290239" id="Fill-104" fill="#212121"></path>
            </g>
        </g>
    </g>
</svg>