<?xml version="1.0" encoding="UTF-8"?>
<svg width="200px" height="200px" viewBox="0 0 200 200" version="1.1" xmlns="http://www.w3.org/2000/svg" xmlns:xlink="http://www.w3.org/1999/xlink">
    <!-- Generator: Sketch 48.2 (47327) - http://www.bohemiancoding.com/sketch -->
    <title>Artboard</title>
    <desc>Created with Sketch.</desc>
    <defs></defs>
    <g id="Page-1" stroke="none" stroke-width="1" fill="none" fill-rule="evenodd">
        <g id="Artboard" fill="#212121">
            <g id="cewe" transform="translate(21.000000, 88.000000)">
                <path d="M145.598268,5.70759188 C145.957871,5.32075472 146.879554,4.85960833 149.228712,4.85960833 C151.676041,4.85960833 152.635072,5.24617723 153.00828,5.57024054 C153.369751,5.88464634 153.800581,6.69721899 153.800848,8.79558258 L153.813652,9.28677457 L144.802766,9.28677457 C144.845449,7.00169901 145.25307,6.07833318 145.598268,5.70759188 Z M153.777372,15.6958777 L153.777372,16.0982742 C153.777372,17.367701 153.524743,18.2213181 153.046428,18.5673791 C152.684957,18.8286685 151.760873,19.1401234 149.407714,19.1401234 C147.486185,19.1401234 146.206499,18.8101583 145.604137,18.1585442 C144.993772,17.4994188 144.684321,16.0985424 144.684321,13.9945453 C144.684321,13.9186265 144.691257,13.7555218 144.719268,13.4051686 L159.998399,13.4051686 L159.989063,11.3416793 C159.989063,6.86139676 159.283195,3.91934186 157.83091,2.34731289 C156.371156,0.767772512 153.630383,0 149.452531,0 C145.102613,0 142.23966,0.784673165 140.70121,2.39881964 C139.167294,4.00786909 138.421678,7.00491818 138.421678,11.5619243 C138.421678,16.6728964 139.134215,19.9467942 140.599838,21.5697934 C142.075331,23.2051328 145.048193,24 149.688354,24 C156.523481,24 159.989063,21.6357865 159.989063,16.9771081 L160,15.6958777 L153.777372,15.6958777 Z M128.941014,11.087633 C128.659573,12.4380757 128.381334,13.8614862 128.113499,15.3200393 L127.73789,17.4261826 L127.652791,17.874184 L127.107251,15.300456 C126.918646,14.4790307 126.596124,13.0794957 126.140751,11.1015828 L123.617927,0.261825986 L116.103342,0.261825986 L113.580251,11.100778 C113.177698,12.8160601 112.852241,14.2298131 112.612417,15.3071627 L112.166114,17.4135742 L112.066076,17.8618439 L111.606969,15.3203076 C111.343135,13.8351963 111.072899,12.4117857 110.803464,11.0884378 L108.57035,0.261825986 L102.302104,0.261825986 L107.49981,23.7379057 L116.223121,23.7379057 L118.554672,13.2734508 C118.943886,11.5168559 119.230128,10.1728516 119.404861,9.28006796 L119.895714,6.81364571 L120.387368,9.25887508 C120.575706,10.1758026 120.869684,11.5267817 121.260766,13.2739873 L123.592851,23.7379057 L132.197449,23.7379057 L137.419164,0.261825986 L131.198403,0.261825986 L128.941014,11.087633 Z M86.8639792,5.70759188 C87.2235823,5.32075472 88.1452654,4.85960833 90.4944235,4.85960833 C92.9417523,4.85960833 93.9005161,5.24617723 94.2737244,5.57050881 C94.6354617,5.88464634 95.0662918,6.69721899 95.0665586,8.79558258 L95.0793635,9.28677457 L86.0682105,9.28677457 C86.1108934,7.00143074 86.5187815,6.07833318 86.8639792,5.70759188 Z M95.043083,16.0982742 C95.043083,17.3674327 94.7904538,18.2213181 94.312139,18.5673791 C93.9509352,18.8286685 93.0265844,19.1401234 90.6734248,19.1401234 C88.7518956,19.1401234 87.47221,18.8101583 86.8701148,18.1585442 C86.2594831,17.4994188 85.9500323,16.0985424 85.9500323,13.9945453 C85.9500323,13.91809 85.9569683,13.754717 85.9849789,13.4051686 L101.264377,13.4051686 L101.254774,11.3416793 C101.254774,6.86166503 100.548906,3.91961012 99.096888,2.34731289 C97.6368673,0.767772512 94.8960939,0 90.7182418,0 C86.3683244,0 83.5053713,0.784673165 81.9669208,2.39881964 C80.4330053,4.00813735 79.6871223,7.00518644 79.6871223,11.5619243 C79.6871223,16.6731646 80.3996594,19.9467942 81.865549,21.5697934 C83.3410422,23.2051328 86.3139037,24 90.9537979,24 C97.788925,24 101.254774,21.6357865 101.254774,16.9771081 L101.265711,15.6958777 L95.043083,15.6958777 L95.043083,16.0982742 Z M71.1908314,14.7030314 C71.1908314,16.9996423 70.820024,17.8760619 70.5087059,18.2071001 C70.2024563,18.5333095 69.3837456,18.9222928 67.2229256,18.9222928 C64.4608108,18.9222928 63.4524281,18.3441831 63.0925582,17.858893 C62.7140145,17.349459 62.26291,15.9402665 62.26291,12.1191094 C62.26291,8.14960207 62.676667,6.68595189 63.0234653,6.15693463 C63.4863076,5.45059465 64.7755969,5.07743897 66.75128,5.07743897 C69.5872895,5.07743897 70.9083242,6.22426898 70.9083242,8.686399 L70.9083242,9.08879549 L77.0573243,9.08879549 L77.0573243,8.686399 C77.0573243,5.35509255 76.3101074,3.04453188 74.8362148,1.81856389 C73.3649898,0.594742019 70.6895745,0 66.6576444,0 C62.4589844,0 59.6923345,0.820084056 58.1997681,2.50693016 C56.719473,4.17928999 56,7.27666995 56,11.9761245 C56,16.7898596 56.7205401,19.9234552 58.2032361,21.5563802 C59.695269,23.2005723 62.5611565,24 66.9646943,24 C72.9378944,24 76.3223787,22.3166413 77.0245119,18.9971385 L77.3494352,15.5212376 L77.3694428,14.3006349 L71.1908314,14.3006349 L71.1908314,14.7030314 Z" id="Fill-1"></path>
                <polygon id="Fill-4" points="10.7001997 3 24 3 13.3129922 21 0 21"></polygon>
                <polygon id="Fill-6" points="19 15.0650299 25.8515955 3 36 21 22.4885384 21"></polygon>
                <polygon id="Fill-8" points="34.2910126 3 48 3.0095533 37.8001043 21 31 9.05811588"></polygon>
            </g>
        </g>
    </g>
</svg>