<?xml version="1.0" encoding="utf-8"?>
<!-- Generator: Adobe Illustrator 15.0.0, SVG Export Plug-In . SVG Version: 6.00 Build 0)  -->
<!DOCTYPE svg PUBLIC "-//W3C//DTD SVG 1.1//EN" "http://www.w3.org/Graphics/SVG/1.1/DTD/svg11.dtd">
<svg version="1.1" id="Layer_1" xmlns="http://www.w3.org/2000/svg" xmlns:xlink="http://www.w3.org/1999/xlink" x="0px" y="0px"
	 width="1027px" height="951px" viewBox="0 0 1027 951" enable-background="new 0 0 1027 951" xml:space="preserve">
<linearGradient id="Fill-1_1_" gradientUnits="userSpaceOnUse" x1="93.7205" y1="772.3347" x2="92.9795" y2="773.1816" gradientTransform="matrix(1027 0 0 -951 -95393.25 735292.25)">
	<stop  offset="0" style="stop-color:#59E6E6"/>
	<stop  offset="1" style="stop-color:#C1F0DE"/>
</linearGradient>
<path id="Fill-1" fill="url(#Fill-1_1_)" d="M1001.006,285.42c-32.63-68.695-129.335-145.587-176.004-179.982
	c-8.125-6.822-16.738-12.969-25.751-18.342c-0.004-0.002-0.02-0.013-0.02-0.013h-0.002c-26.584-15.845-56.616-24.978-87.72-24.978
	c-44.729,0-85.234,17.684-116.25,46.939h-0.004c-59.412,47.602-70.795,159.857-70.795,159.857
	c-6.611,45.589-22.472,83.908-22.472,83.908c-31.835,89.858-111.04,59.463-111.04,59.463
	c-39.448-11.266-74.822-16.156-96.475-18.261c-7.258-1.024-14.653-1.56-22.165-1.56c-102.776,0-193.327,92.145-193.327,193.585
	c0,62.154,31.065,120.064,76.915,155.604v0.002c0.106,0.085,0.218,0.165,0.327,0.25c0.953,0.735,1.909,1.467,2.875,2.183
	c43.888,32.847,95.696,44.795,95.696,44.795c64.111,10.57,95.176,44.928,95.176,44.928l64.771,58.801
	c64.774,52.196,115.666,56.161,115.666,56.161c101.785,13.212,163.256-36.34,163.256-36.34
	c60.147-40.304,91.871-121.567,91.871-121.567c35.03-99.104,83.939-128.176,83.939-128.176l47.589-41.624
	c84.6-75.979,101.787-157.905,101.787-157.905C1044.629,355.457,1001.006,285.42,1001.006,285.42 M275.615,141.719
	C275.615,63.451,209.743,0,135.825,0C61.906,0,0,59.487,0,137.756s72.812,144.361,146.73,144.361
	C220.649,282.117,275.615,219.988,275.615,141.719"/>
</svg>
