<?xml version="1.0" encoding="UTF-8"?>
<svg width="200px" height="200px" viewBox="0 0 200 200" version="1.1" xmlns="http://www.w3.org/2000/svg" xmlns:xlink="http://www.w3.org/1999/xlink">
    <!-- Generator: Sketch 48.2 (47327) - http://www.bohemiancoding.com/sketch -->
    <title>Artboard</title>
    <desc>Created with Sketch.</desc>
    <defs></defs>
    <g id="Page-1" stroke="none" stroke-width="1" fill="none" fill-rule="evenodd">
        <g id="Artboard" fill="#212121" fill-rule="nonzero">
            <g id="Kiwi" transform="translate(35.000000, 68.000000)">
                <path d="M57.2862923,27.3088505 C57.353239,27.143416 57.4201862,26.8794052 57.4201862,26.714351 C57.4201862,25.8227103 56.7167211,25.3932107 55.9798099,25.3932107 C55.3432365,25.3932107 54.9411145,25.6906777 54.706167,26.3841338 L51.758027,35.2681707 L48.3738236,26.3179817 C48.172983,25.7565582 47.8044726,25.3932107 47.1005666,25.3932107 C46.3971014,25.3932107 46.0285357,25.7565582 45.8276401,26.3179817 L42.4770478,35.2681707 L39.5285772,26.3841338 C39.2939603,25.6906777 38.8918385,25.3932107 38.255265,25.3932107 C37.5180234,25.3932107 36.8145032,25.8227103 36.8145032,26.714351 C36.8145032,26.8794052 36.8815051,27.143416 36.9483968,27.3088505 L41.0695114,39.3633525 C41.2037356,39.8913742 41.6392482,40.2553191 42.3765449,40.2553191 C43.1136212,40.2553191 43.5156879,39.8590042 43.7165835,39.3302765 L47.1005666,30.1819029 L50.5181607,39.3302765 C50.719332,39.8913742 51.1546791,40.2553191 51.8587504,40.2553191 C52.5622155,40.2553191 52.9643375,39.9251563 53.1652328,39.3633525 L57.2862923,27.3088505 Z M26.5625468,37.4987661 L21.6865586,32.7220225 L26.5625468,27.9450617 C27.1786229,27.3377988 27.2263949,26.4034146 26.5625468,25.7496606 C25.8994151,25.095798 24.9516905,25.1423434 24.3357796,25.7499865 L18.4032988,31.5974375 C18.0859763,31.9103835 17.932467,32.315334 17.9392994,32.7216423 C17.932467,33.1277334 18.0856457,33.5331184 18.4032988,33.8460644 L24.3357796,39.6935155 C24.9516905,40.3008326 25.8994151,40.3477039 26.5625468,39.6935155 C27.2260092,39.0400873 27.1786229,38.1060832 26.5625468,37.4987661 Z M17.1918643,38.591307 L17.1918643,26.8335659 C17.1918643,25.9750012 16.5221205,25.2815995 15.6172087,25.2815995 C14.7124623,25.2815995 14.0425532,25.9750012 14.0425532,26.8335659 L14.0425532,38.591307 C14.0425532,39.4495458 14.6787409,40.1430018 15.6172087,40.1430018 C16.5553459,40.1430018 17.1918643,39.4495458 17.1918643,38.591307 Z M30.522438,26.9456116 L30.522438,38.7023208 C30.522438,39.5612113 31.1591767,40.2553191 32.0973139,40.2553191 C33.0355613,40.2553191 33.6723552,39.5612113 33.6723552,38.7023208 L33.6723552,26.9456116 C33.6723552,26.0870469 33.0020053,25.3932107 32.0973139,25.3932107 C31.1927328,25.3932107 30.522438,26.0870469 30.522438,26.9456116 Z M60.6162771,26.9456116 L60.6162771,38.7023208 C60.6162771,39.5612113 61.2531811,40.2553191 62.1913186,40.2553191 C63.1294006,40.2553191 63.765974,39.5612113 63.765974,38.7023208 L63.765974,26.9456116 C63.765974,26.0870469 63.0956794,25.3932107 62.1913186,25.3932107 C61.2865722,25.3932107 60.6162771,26.0870469 60.6162771,26.9456116 Z M60.6162771,26.9456116 L60.6162771,38.7023208 C60.6162771,39.5612113 61.2531811,40.2553191 62.1913186,40.2553191 C63.1294006,40.2553191 63.765974,39.5612113 63.765974,38.7023208 L63.765974,26.9456116 C63.765974,26.0870469 63.0956794,25.3932107 62.1913186,25.3932107 C61.2865722,25.3932107 60.6162771,26.0870469 60.6162771,26.9456116 Z M60.6162771,26.9456116 L60.6162771,38.7023208 C60.6162771,39.5612113 61.2531811,40.2553191 62.1913186,40.2553191 C63.1294006,40.2553191 63.765974,39.5612113 63.765974,38.7023208 L63.765974,26.9456116 C63.765974,26.0870469 63.0956794,25.3932107 62.1913186,25.3932107 C61.2865722,25.3932107 60.6162771,26.0870469 60.6162771,26.9456116 Z M92.4893923,28.0957884 C93.9001795,28.0957884 94.7232124,28.6266886 95.5110363,29.2189614 C95.8257138,29.4326792 96.1331734,29.5365239 96.4509918,29.5365239 C97.2158937,29.5365239 97.7926832,28.9589696 97.7926832,28.1930613 C97.7926832,27.8356881 97.6457309,27.5168222 97.3436711,27.2186491 C96.2194602,26.0720134 94.404788,25.3874102 92.4893923,25.3874102 C88.1444607,25.3874102 85.1099234,28.4215521 85.1099234,32.7657546 C85.1099234,37.1103372 88.1444607,40.1444791 92.4893923,40.1444791 C94.4049535,40.1444791 96.2167605,39.4624829 97.3357366,38.3205723 C97.6431962,38.0172939 97.7926832,37.6964184 97.7926832,37.3393168 C97.7926832,36.5731369 97.2158937,35.9953112 96.4509918,35.9953112 C96.1323467,35.9953112 95.8178893,36.1042611 95.4885,36.3291672 C94.7441503,36.8893416 93.8994634,37.4363181 92.4893923,37.4363181 C89.8866207,37.4363181 88.0688077,35.5157359 88.0688077,32.7657546 C88.0688077,30.0160991 89.8866207,28.0957884 92.4893923,28.0957884 Z M107.151877,25.387421 C102.920727,25.387421 99.7300915,28.5594612 99.7300915,32.7657654 C99.7300915,36.9722869 102.920727,40.14449 107.151877,40.14449 C111.382807,40.14449 114.573333,36.9722869 114.573333,32.7657654 C114.573333,28.5594612 111.382807,25.387421 107.151877,25.387421 Z M107.151877,37.5093787 C104.216025,37.5093787 102.679939,35.1230164 102.679939,32.7657654 C102.679939,29.6519478 104.929573,28.022804 107.151877,28.022804 C110.088667,28.022804 111.625303,30.4088403 111.625303,32.7657654 C111.625303,35.8800176 109.374898,37.5093787 107.151877,37.5093787 Z M130.594833,25.4709909 C130.049506,25.4709909 129.570188,25.7890965 129.31265,26.3218433 L124.725938,35.7887027 L124.68577,35.7053881 L120.088313,26.3029427 C119.770991,25.7353276 119.359998,25.4709909 118.794779,25.4709909 C118.018692,25.4709909 117.410771,26.0704329 117.410771,26.8355809 L117.410771,38.6753874 C117.410771,39.4264143 118.044589,40.0609961 118.794779,40.0609961 C119.556651,40.0609961 120.200332,39.4264143 120.200332,38.6753874 L120.200332,32.3844243 L123.510922,39.2997586 C123.775348,39.819036 124.161766,40.0609961 124.726929,40.0609961 C125.265259,40.0609961 125.709312,39.7810175 125.945362,39.292861 L129.210439,32.3857821 L129.210439,38.6965148 C129.210439,39.4487908 129.831474,40.0609961 130.594833,40.0609961 C131.382767,40.0609961 132,39.4616628 132,38.6965148 L132,26.856491 C132,26.0277979 131.435278,25.4709909 130.594833,25.4709909 Z" id="Combined-Shape"></path>
                <path d="M71.0798993,46.7052065 C70.670974,46.401225 70.1869274,46.2403262 69.6801903,46.2403262 C68.9329993,46.2403262 68.2221025,46.6016963 67.7789206,47.2071063 C64.8192914,51.2493893 60.6397147,54.6379202 55.6922946,57.0065011 C50.5479292,59.47121 44.6681036,60.7736633 38.6713006,60.7736633 C29.5208972,60.7736633 20.9393546,57.8081085 14.5074109,52.4225792 C11.4198443,49.8405398 9.00120835,46.8432942 7.31841791,43.5143162 C5.5960843,40.105638 4.7222229,36.4895509 4.72128664,32.7665679 C4.7222229,29.04414 5.5960843,25.4277199 7.31841791,22.0179872 C9.85100232,17.0054832 14.0735918,12.7263755 19.5298421,9.64315798 C25.1842491,6.44693949 31.8067494,4.7575858 38.6836923,4.7575858 C44.6796141,4.7575858 50.573814,6.06675441 55.7291391,8.54339641 C60.6869135,10.9242984 64.8687482,14.3273154 67.8224842,18.3846946 C68.265611,18.9931572 68.9777196,19.3562478 69.727554,19.3562478 C70.2320331,19.3562478 70.7144825,19.1967366 71.1223616,18.8950862 C72.1715241,18.1189536 72.3985398,16.6271852 71.6282729,15.5698822 C68.2121337,10.8810072 63.4169385,6.96604471 57.760769,4.24830434 C51.9749002,1.46945686 45.3780643,0.000388510664 38.6836923,0 C28.4343395,0.00210905605 18.7773641,3.35772779 11.491661,9.44873634 C7.9078214,12.4469256 5.08846593,15.9490682 3.11174485,19.8583141 C1.04607903,23.9409466 -0.0010456252,28.2837144 7.83490641e-07,32.7665679 C-0.0010456252,37.249255 1.04607903,41.5919118 3.11174485,45.6739893 C6.07401771,51.5282841 10.9527606,56.4954433 17.2207486,60.0382684 C23.5788379,63.6314338 31.0005191,65.5312489 38.6836923,65.5319149 C45.3598899,65.5319149 51.9422413,64.0698954 57.7189676,61.3040352 C63.3645079,58.5987826 68.1567292,54.7013031 71.5775494,50.0324641 C72.3502948,48.9773258 72.1271342,47.4846691 71.0798993,46.7052065" id="Fill-5"></path>
                <path d="M74.8936173,29.9574468 C73.3450295,29.9574468 72.0851064,31.2172949 72.0851064,32.7659872 C72.0851064,34.3145605 73.3450295,35.5744681 74.8936173,35.5744681 C76.4422045,35.5744681 77.7021277,34.3145605 77.7021277,32.7659872 C77.7021277,31.2172949 76.4422045,29.9574468 74.8936173,29.9574468" id="Fill-3"></path>
            </g>
        </g>
    </g>
</svg>