<?xml version="1.0" encoding="UTF-8"?>
<svg width="200px" height="200px" viewBox="0 0 200 200" version="1.1" xmlns="http://www.w3.org/2000/svg" xmlns:xlink="http://www.w3.org/1999/xlink">
    <!-- Generator: Sketch 48.2 (47327) - http://www.bohemiancoding.com/sketch -->
    <title>Artboard</title>
    <desc>Created with Sketch.</desc>
    <defs></defs>
    <g id="Page-1" stroke="none" stroke-width="1" fill="none" fill-rule="evenodd">
        <g id="Artboard" fill="#212121">
            <g id="mikona" transform="translate(21.000000, 89.000000)">
                <path d="M152.049689,5.95073144 C152.049689,3.66956216 153.877155,1.98757764 156.035373,1.98757764 C158.172534,1.98757764 160,3.66956216 160,5.95073144 C160,8.25501468 158.172534,9.9378882 156.035373,9.9378882 C153.877155,9.9378882 152.049689,8.25501468 152.049689,5.95073144 Z M156.035373,9.27469557 C157.810199,9.27469557 159.211286,7.86563348 159.211286,5.95073144 C159.211286,4.06872234 157.810199,2.64899227 156.035373,2.64899227 C154.240368,2.64899227 152.838404,4.06872234 152.838404,5.95073144 C152.838404,7.86563348 154.240368,9.27469557 156.035373,9.27469557 Z M155.205424,8.25501468 L154.520234,8.25501468 L154.520234,3.66956216 L156.243298,3.66956216 C157.311879,3.66956216 157.841783,4.06872234 157.841783,4.97372246 C157.841783,5.79337877 157.333812,6.15164503 156.667923,6.23521086 L157.955835,8.25501468 L157.188176,8.25501468 L155.994138,6.26632579 L155.205424,6.26632579 L155.205424,8.25501468 Z M156.024845,5.67780901 C156.606511,5.67780901 157.125009,5.6351371 157.125009,4.93105055 C157.125009,4.36386973 156.616161,4.25807894 156.139774,4.25807894 L155.205424,4.25807894 L155.205424,5.67780901 L156.024845,5.67780901 Z" id="Fill-1"></path>
                <path d="M126.597235,24.2319365 L135.135189,0.540275625 L144.688418,0.540275625 L153.043478,24.2319365 L143.815887,24.2319365 L143.053092,21.2422935 L136.58673,21.2422935 L135.823042,24.2319365 L126.597235,24.2319365 Z M138.004369,15.6273177 L141.563188,15.6273177 L140.836079,12.9277081 C140.472078,11.5580077 140.256176,10.5119421 140.110754,9.79127985 C139.966225,9.0723861 139.891283,8.3526081 139.856489,7.70710695 C139.673597,8.3526081 139.599548,9.0723861 139.455018,9.79127985 C139.347959,10.5119421 139.094586,11.5580077 138.730586,12.9277081 L138.004369,15.6273177 Z M100.878102,24.2319365 L100.878102,0.540275625 L109.270633,0.540275625 L116.716584,12.9277081 C116.608633,12.3838955 116.536368,11.7719957 116.49979,11.0911246 C116.461427,10.4412023 116.461427,9.54280612 116.461427,8.46048638 L116.461427,0.540275625 L124.707645,0.540275625 L124.707645,24.2319365 L116.244633,24.2319365 L108.904848,11.9178967 C108.978897,12.4581723 109.052054,13.0329336 109.088633,13.6466018 C109.123427,14.2204789 109.160897,14.9066554 109.160897,15.6626876 L109.160897,24.2319365 L100.878102,24.2319365 Z M97.9732347,12.4201496 C97.9732347,10.6923287 97.6467049,9.03878467 97.0293315,7.56385874 C96.4101737,6.04914165 95.5385353,4.71569543 94.3403669,3.56440433 C93.1395221,2.41311322 91.76203,1.5111801 90.198969,0.901048873 C88.6368002,0.327171818 86.9648959,0 85.1868248,0 C83.3686065,0 81.6993787,0.327171818 80.1345334,0.901048873 C78.6107273,1.5111801 77.2296666,2.41311322 76.0306061,3.56440433 C74.8342221,4.71569543 73.9599071,6.04914165 73.344318,7.52583607 C72.7260525,9.03878467 72.4361011,10.657843 72.4361011,12.4201496 C72.4361011,14.185109 72.7260525,15.8041673 73.344318,17.281746 C73.9599071,18.7920419 74.8342221,20.0883497 76.0306061,21.2422935 C77.2296666,22.4298388 78.6107273,23.296402 80.1737883,23.9065332 C81.7332807,24.5546871 83.405185,24.8447205 85.1868248,24.8447205 C86.9292095,24.8447205 88.6002217,24.5546871 90.1623905,23.9065332 C91.7236672,23.296402 93.104728,22.4298388 94.3028963,21.2785477 C95.5019568,20.0883497 96.4101737,18.7584404 97.0293315,17.281746 C97.6467049,15.7705659 97.9732347,14.1488548 97.9732347,12.4201496 Z M49.2961962,24.2319365 L49.2961962,0.540275625 L57.7244139,0.540275625 L57.7244139,10.6224731 L63.1728234,0.540275625 L72.9080527,0.540275625 L65.6780034,12.2052773 L73.925113,24.2319365 L63.5350396,24.2319365 L57.7244139,14.3301256 L57.7244139,24.2319365 L49.2961962,24.2319365 Z M35.927207,24.2319365 L44.6801702,24.2319365 L44.6801702,0.540275625 L35.927207,0.540275625 L35.927207,24.2319365 Z M23.9785335,24.2319365 L22.9222183,14.8341471 C22.8874241,14.1143691 22.8124828,13.3945911 22.7428945,12.6739288 C22.6688454,11.9550351 22.6313747,11.2343728 22.5582178,10.5119421 C22.4859529,11.1981187 22.3432076,11.9178967 22.1620996,12.6739288 C21.978315,13.429961 21.7615206,14.2585015 21.5063633,15.1215278 L18.7469183,24.2319365 L13.6598328,24.2319365 L10.8986034,15.1215278 C10.6461227,14.2585015 10.4266518,13.429961 10.2464359,12.6739288 C10.0653278,11.9178967 9.91812168,11.1981187 9.84585688,10.5119421 C9.77269991,11.2343728 9.70132726,11.9886365 9.66564094,12.6739288 C9.59159182,13.3945911 9.52200348,14.1143691 9.48274853,14.8341471 L8.4291098,24.2319365 L0,24.2319365 L4.0718096,0.540275625 L12.9345082,0.540275625 L14.6403145,6.37189223 C14.7143637,6.59030152 14.7857363,6.84231225 14.8954718,7.201317 C15.6225806,9.68517008 16.0570616,11.7021401 16.2024834,13.3211985 C16.4933269,12.3158083 16.6753272,11.2343728 16.9295923,10.1184517 C17.221328,8.96539207 17.5478578,7.70710695 17.983231,6.29849963 L19.7621942,0.540275625 L28.625785,0.540275625 L32.4049668,24.2319365 L23.9785335,24.2319365 Z M85.1868248,16.8856028 C86.3849931,16.8856028 87.366367,16.4912281 88.0907994,15.6626876 C88.8179082,14.8341471 89.1810166,13.7518274 89.1810166,12.4201496 C89.1810166,11.053102 88.8179082,9.97166648 88.0907994,9.1475472 C87.366367,8.31723817 86.3849931,7.92374774 85.1868248,7.92374774 C83.9868721,7.92374774 83.0063903,8.31723817 82.2801736,9.1475472 C81.5173785,9.97166648 81.1542701,11.0911246 81.1542701,12.4201496 C81.1542701,13.7518274 81.5173785,14.8341471 82.2801736,15.6626876 C83.0063903,16.4912281 83.9868721,16.8856028 85.1868248,16.8856028 Z" id="Fill-3"></path>
            </g>
        </g>
    </g>
</svg>