<?xml version="1.0" encoding="UTF-8"?>
<svg width="200px" height="200px" viewBox="0 0 200 200" version="1.1" xmlns="http://www.w3.org/2000/svg" xmlns:xlink="http://www.w3.org/1999/xlink">
    <!-- Generator: Sketch 48.2 (47327) - http://www.bohemiancoding.com/sketch -->
    <title>Artboard</title>
    <desc>Created with Sketch.</desc>
    <defs></defs>
    <g id="Page-1" stroke="none" stroke-width="1" fill="none" fill-rule="evenodd">
        <g id="Artboard" fill="#212121" fill-rule="nonzero">
            <g id="Shimano" transform="translate(26.000000, 93.000000)">
                <path d="M135.274168,3.49063349 C134.027168,3.49063349 133.18225,4.65322465 133.18225,5.65422565 C133.18225,6.67381667 133.18225,13.5921636 133.18225,14.2671243 C133.18225,15.7343057 134.334163,16.5107965 135.253792,16.5107965 C135.945212,16.5107965 137.673081,16.5107965 138.728549,16.5107965 C139.706588,16.5107965 140.801449,15.5913056 140.801449,14.3271843 C140.801449,13.043043 140.801449,6.75675676 140.801449,5.67424567 C140.801449,4.59173459 139.860086,3.49063349 138.747566,3.49063349 C137.614671,3.49063349 135.790355,3.49063349 135.274168,3.49063349 Z M141.605615,0 C143.257415,0 146,1.28557129 146,5.85728586 C146,7.87787788 146,11.4471614 146,14.2656943 C146,19.2020592 142.585012,20 141.566221,20 C140.627575,20 133.987775,20 132.413403,20 C130.821372,20 128,18.7945088 128,14.2027742 C128,13.1431431 128,6.7953668 128,5.61275561 C128,2.69412269 129.574372,0.0214500215 132.471813,3.34888702e-16 C133.221644,0 140.627575,0 141.605615,0 Z" id="Shape"></path>
                <path d="M88.2829472,11.6747921 L96.6976098,11.6747921 C96.6976098,11.6747921 96.6976098,6.7765988 96.6976098,5.83739604 C96.7170528,4.79638658 95.9532198,3.49010611 94.6824794,3.49010611 C93.3895183,3.49010611 91.3952196,3.49010611 90.3966815,3.49010611 C89.3606462,3.49010611 88.2843359,4.48953255 88.2843359,5.69400631 C88.2829472,6.91855463 88.2829472,11.6747921 88.2829472,11.6747921 Z M83.0013888,5.81588758 C82.980557,2.40894752 84.7804254,0 87.5774432,0 C88.8884584,0 96.304583,0 97.5767122,0 C100.258461,0 102,2.44909664 102,5.69400631 C102,7.69429309 102,20 102,20 L96.7156641,20 L96.7156641,15.572125 L88.2829472,15.572125 L88.2829472,20 L83,20 C83.0013888,20 83.0013888,8.0628047 83.0013888,5.81588758 Z" id="Shape"></path>
                <path d="M106,20 L111.314988,20 L111.314988,3.46947327 C111.314988,3.46947327 115.496019,3.46947327 116.560408,3.46947327 C117.765324,3.46947327 118.685012,4.50361729 118.755971,5.68262752 C118.755971,6.78992181 118.755971,19.9985657 118.755971,19.9985657 L124,19.9985657 C124,19.9985657 124,8.19125149 124,5.83036238 C124,3.10085329 122.795084,-0.0732947093 119.393213,0.00128987984 C117.975419,0.00128987984 106,0.00128987984 106,0.00128987984 L106,20 Z" id="Shape"></path>
                <path d="M54,0 L54,19.9985656 L59.241128,19.9985656 L59.241128,3.46840709 L63.843976,3.46840709 L63.843976,20 L69.156024,20 L69.156024,3.46840709 C69.156024,3.46840709 70.7148737,3.46840709 71.5631327,3.46840709 C72.6964623,3.46840709 73.6879519,4.57433838 73.6879519,5.68170408 C73.6879519,6.86222477 73.6879519,19.9985656 73.6879519,19.9985656 L79,19.9985656 C79,19.9985656 79,7.5995123 79,5.68170408 C79,2.80427455 77.5120703,0 74.4666815,0 C73.6184225,9.15697108e-16 54,0 54,0" id="Shape"></path>
                <rect id="Rectangle-path" x="45" y="0" width="6" height="20"></rect>
                <polygon id="Shape" points="22 0 22 20 27.1925691 20 27.1925691 15.5719716 34.8074309 15.5719716 34.8074309 20 40 20 40 0 34.8074309 0 34.8074309 11.6603313 27.1925691 11.6603313 27.1925691 0"></polygon>
                <path d="M18.4227236,0 C18.4227236,0 6.10995621,0 5.10503369,0 C1.80274271,0 0.493383632,2.65939898 0.332708783,3.3206627 C-0.112670623,5.17679122 -0.132402622,7.65975758 0.404589637,9.07695618 C0.72171105,9.9132181 2.04657384,12.0246719 5.07684512,12.0289751 C6.01129621,12.0304095 11.1007425,12.0289751 12.0337842,12.0289751 C13.0387067,12.0289751 13.684225,12.7676971 13.7561058,14.1691171 C13.8279867,15.4959478 13.3262301,16.5301585 12.0337842,16.5301585 C10.8132191,16.5301585 0.620232197,16.5301585 0.620232197,16.5301585 L0.620232197,20 C0.620232197,20 12.5369502,20 13.9717484,20 C17.2021585,19.9239762 18.0323119,17.9028903 18.4227236,16.9748261 C19.243011,15.0240264 19.1401227,12.2513089 18.4227236,10.3335007 C18.207081,9.66793373 16.986516,7.52922613 13.8279867,7.52922613 C12.894945,7.52922613 7.86892298,7.52922613 6.79352903,7.52922613 C5.78860651,7.52922613 5.21355968,6.7905042 5.21355968,5.46223912 C5.21355968,4.13397404 5.78860651,3.39668651 6.79352903,3.39668651 C7.79845155,3.39668651 18.4227236,3.39668651 18.4227236,3.39668651 L18.4227236,0 Z" id="Shape"></path>
            </g>
        </g>
    </g>
</svg>